<svg aria-hidden="true" style="position: absolute; width: 0; height: 0; overflow: hidden;" version="1.1" xmlns="http://www.w3.org/2000/svg" xmlns:xlink="http://www.w3.org/1999/xlink">
<defs>
<symbol id="advantages-box" viewBox="0 0 32 32">
<path d="M30.733 7.061l-14.529-7.014c-0.129-0.062-0.279-0.062-0.408 0l-14.529 7.014c-0.162 0.078-0.265 0.242-0.265 0.422v17.034c0 0.18 0.103 0.344 0.265 0.422l14.529 7.014c0.064 0.031 0.134 0.047 0.204 0.047s0.139-0.016 0.204-0.047l14.529-7.014c0.162-0.078 0.265-0.242 0.265-0.422v-17.034c0-0.18-0.103-0.344-0.265-0.422zM16 0.989l13.451 6.494-3.899 1.882c-0.025-0.019-0.051-0.036-0.079-0.050l-13.36-6.449 3.887-1.877zM11.054 3.396l13.432 6.484-2.751 1.328-13.426-6.482 2.745-1.331zM24.8 10.769v4.909l-2.57 1.24v-4.909l2.57-1.24zM30.060 24.223l-13.592 6.561v-15.993l3.242-1.565c0.233-0.113 0.331-0.393 0.218-0.626s-0.393-0.331-0.626-0.218l-3.303 1.595-1.3-0.628c-0.233-0.113-0.513-0.015-0.626 0.218s-0.015 0.513 0.218 0.626l1.239 0.598v15.993l-13.592-6.561v-15.993l10.35 4.997c0.066 0.032 0.135 0.047 0.203 0.047 0.174 0 0.342-0.098 0.422-0.265 0.113-0.233 0.015-0.513-0.218-0.626l-10.148-4.899 4.657-2.248 14.081 6.798c0.002 0.003 0.004 0.005 0.006 0.008v5.625c0 0.161 0.083 0.311 0.22 0.397 0.076 0.048 0.162 0.072 0.249 0.072 0.070 0 0.139-0.015 0.204-0.047l3.507-1.693c0.162-0.078 0.265-0.242 0.265-0.422v-5.656l4.323-2.087v15.993z"></path>
<path d="M5.808 22.405l-2.132-1.029c-0.233-0.113-0.513-0.015-0.626 0.218s-0.015 0.513 0.218 0.626l2.132 1.029c0.066 0.032 0.135 0.047 0.203 0.047 0.174 0 0.342-0.098 0.422-0.265 0.113-0.233 0.015-0.513-0.218-0.626z"></path>
<path d="M7.77 21.128l-4.092-1.975c-0.233-0.113-0.513-0.015-0.626 0.218s-0.015 0.513 0.218 0.626l4.092 1.975c0.066 0.032 0.135 0.047 0.203 0.047 0.174 0 0.342-0.098 0.422-0.265 0.113-0.233 0.015-0.514-0.218-0.626z"></path>
</symbol>
<symbol id="advantages-checked" viewBox="0 0 32 32">
<path d="M16 32c-0.149 0-0.3-0.033-0.438-0.102-6.326-3.080-11.563-6.404-11.563-15.899v-11c0-0.421 0.263-0.796 0.658-0.939l11-4c0.221-0.080 0.463-0.080 0.684 0l11 4c0.396 0.144 0.658 0.519 0.658 0.939v11c0 9.494-5.236 12.819-11.563 15.899-0.138 0.068-0.288 0.102-0.437 0.102v0zM6 5.7v10.3c0 7.46 3.367 10.594 10 13.885 6.633-3.291 10-6.425 10-13.885v-10.3l-10-3.636-10 3.636z"></path>
<path d="M15.293 20l-4.707-4.707 1.414-1.414 3.293 3.293 6.293-6.293 1.414 1.414-7.707 7.707z"></path>
</symbol>
<symbol id="advantages-credit-card" viewBox="0 0 32 32">
<path d="M27.788 3.141h-19.226c-2.322 0-4.212 1.889-4.212 4.212v0.569h-0.138c-2.322 0-4.212 1.889-4.212 4.212v12.514c0 2.322 1.889 4.212 4.212 4.212h19.225c2.322 0 4.212-1.89 4.212-4.212v-0.569h0.138c2.322 0 4.212-1.89 4.212-4.212v-12.514c-0-2.322-1.89-4.212-4.212-4.212v0zM25.775 24.647c0 1.289-1.048 2.337-2.337 2.337h-19.225c-1.289 0-2.337-1.048-2.337-2.337v-5.569h23.9v5.569zM25.775 17.203h-23.9v-2.625h23.9v2.625zM25.775 12.703h-23.9v-0.569c0-1.289 1.048-2.337 2.337-2.337h19.225c1.289 0 2.337 1.048 2.337 2.337v0.569zM30.125 19.866c0 1.289-1.048 2.337-2.337 2.337h-0.138v-10.069c0-2.322-1.89-4.212-4.212-4.212h-17.212v-0.569c0-1.289 1.048-2.337 2.337-2.337h19.226c1.289 0 2.337 1.048 2.337 2.337v12.514z"></path>
<path d="M4.542 21.953h8.25v1.875h-8.25v-1.875z"></path>
<path d="M19.667 21.953h3.441v1.875h-3.441v-1.875z"></path>
</symbol>
<symbol id="advantages-operator" viewBox="0 0 32 32">
<path d="M28.207 26.486c-0.071-4.349-4.518-5.634-7.764-6.572-0.379-0.109-0.743-0.215-1.084-0.32v-1.794c0.664-0.416 1.245-0.952 1.715-1.576h1.978c0.968 0 1.755-0.787 1.755-1.755v-2.125c0.117-0.274 0.183-0.574 0.183-0.891v-0.661c0-0.316-0.065-0.617-0.183-0.89v-1.096c0-4.856-3.95-8.806-8.806-8.806-4.855 0-8.804 3.95-8.804 8.806v1.065c0 0.008 0.001 0.016 0.001 0.025-0.119 0.275-0.186 0.578-0.186 0.896v0.661c0 1.249 1.016 2.265 2.264 2.265h0.516c0.358 1.716 1.411 3.179 2.85 4.081v1.794c-0.341 0.105-0.706 0.21-1.085 0.32-3.247 0.938-7.693 2.223-7.764 6.572-0 0.003-0 0.007-0 0.010v4.879c0 0.345 0.28 0.625 0.625 0.625h1.853c0.345 0 0.625-0.28 0.625-0.625s-0.28-0.625-0.625-0.625h-1.228v-4.249c0.026-1.517 0.723-2.655 2.193-3.58 0.97-0.61 2.156-1.045 3.325-1.409l1.51 2.942c0.168 0.328 0.599 0.439 0.906 0.233l0.673-0.454 0.578 2.173-0.99 4.343h-1.354c-0.345 0-0.625 0.28-0.625 0.625s0.28 0.625 0.625 0.625h15.7c0.345 0 0.625-0.28 0.625-0.625v-4.879c0-0.003 0-0.007-0-0.010v0zM20.096 21.114c0.041 0.012 0.083 0.024 0.125 0.036l-1.080 2.107-2.022-1.363 1.713-1.156c0.398 0.125 0.821 0.248 1.265 0.376zM16 22.648l1.253 0.845-0.606 2.277h-1.296l-0.606-2.276 1.254-0.846zM16 21.141l-2.109-1.422v-1.316c0.66 0.233 1.37 0.361 2.108 0.361s1.449-0.128 2.109-0.361v1.315l-2.108 1.422zM21.092 8.921c-0.009-0.005-0.017-0.011-0.026-0.016-1.282-0.816-2.39-1.521-4.126-1.025-0.016 0.005-0.032 0.010-0.048 0.016-0.368 0.138-0.702 0.267-1.026 0.392-1.976 0.761-3.056 1.176-4.959 1.123v-0.5c0-2.808 2.284-5.092 5.092-5.092s5.092 2.284 5.092 5.092v0.012h0zM23.556 14.468c0 0.279-0.227 0.505-0.505 0.505h-1.246c0.176-0.399 0.312-0.819 0.403-1.255h0.516c0.293 0 0.574-0.057 0.831-0.159v0.909h-0zM23.739 11.453c0 0.56-0.455 1.016-1.014 1.016h-0.384c0-0.016 0.001-2.69 0.001-2.69h0.383c0.559 0 1.014 0.455 1.014 1.014v0.661zM9.275 12.469c-0.559 0-1.014-0.456-1.014-1.015v-0.661c0-0.559 0.455-1.014 1.014-1.014h0.383c0 0 0 2.675 0.001 2.69h-0.384zM9.67 8.529h-0.395c-0.292 0-0.571 0.056-0.828 0.157 0.065-4.111 3.428-7.436 7.553-7.436 4.126 0 7.49 3.325 7.555 7.437-0.257-0.102-0.537-0.158-0.83-0.158h-0.395c-0.197-3.321-2.961-5.962-6.33-5.962s-6.133 2.641-6.33 5.962zM10.946 13.030c-0-0.001-0-0.001-0-0.002-0.024-0.199-0.037-0.401-0.037-0.606v-1.763c2.138 0.052 3.414-0.439 5.408-1.206 0.314-0.121 0.639-0.246 0.992-0.379 1.181-0.33 1.86 0.103 3.087 0.884 0.213 0.136 0.446 0.284 0.697 0.437v2.027c0 0.929-0.252 1.801-0.688 2.552h-4.404c-0.345 0-0.625 0.28-0.625 0.625s0.28 0.625 0.625 0.625h3.383c-0.9 0.802-2.085 1.29-3.383 1.29-2.602-0-4.753-1.962-5.054-4.484v0zM12.861 23.258l-1.082-2.107c0.041-0.012 0.083-0.024 0.124-0.036 0.443-0.128 0.867-0.251 1.265-0.376l1.714 1.156-2.021 1.363zM14.52 30.75l0.851-3.73h1.26l0.852 3.73h-2.962zM26.958 30.75h-8.193l-0.992-4.344 0.578-2.174 0.675 0.455c0.306 0.207 0.737 0.095 0.906-0.233l1.508-2.942c1.169 0.364 2.355 0.798 3.325 1.408 1.47 0.925 2.167 2.062 2.193 3.58v4.249h-0z"></path>
<path d="M24.489 27.625h-3.15c-0.345 0-0.625 0.28-0.625 0.625s0.28 0.625 0.625 0.625h3.15c0.345 0 0.625-0.28 0.625-0.625s-0.28-0.625-0.625-0.625z"></path>
<path d="M9.077 30.75c-0.345 0-0.625 0.28-0.625 0.625s0.28 0.625 0.625 0.625h0.002c0.345 0 0.624-0.28 0.624-0.625s-0.281-0.625-0.626-0.625z"></path>
</symbol>
<symbol id="info-phone" viewBox="0 0 32 32">
<path d="M20 10c2 2 4 2 4 4s-2 4-4 6-4 4-6 4-2-2-4-4-8 4-8 6 6 6 6 6c4 0 12.109-4.109 16-8s8-12 8-16c0 0-4-6-6-6s-8 6-6 8z"></path>
</symbol>
<symbol id="footer-facebook" viewBox="0 0 24 28">
<path d="M19.5 2c2.484 0 4.5 2.016 4.5 4.5v15c0 2.484-2.016 4.5-4.5 4.5h-2.938v-9.297h3.109l0.469-3.625h-3.578v-2.312c0-1.047 0.281-1.75 1.797-1.75l1.906-0.016v-3.234c-0.328-0.047-1.469-0.141-2.781-0.141-2.766 0-4.672 1.687-4.672 4.781v2.672h-3.125v3.625h3.125v9.297h-8.313c-2.484 0-4.5-2.016-4.5-4.5v-15c0-2.484 2.016-4.5 4.5-4.5h15z"></path>
</symbol>
<symbol id="reasons-friends" viewBox="0 0 36 32">
<path d="M24 24.082v-1.649c2.203-1.241 4-4.337 4-7.432 0-4.971 0-9-6-9s-6 4.029-6 9c0 3.096 1.797 6.191 4 7.432v1.649c-6.784 0.555-12 3.888-12 7.918h28c0-4.030-5.216-7.364-12-7.918z"></path>
<path d="M10.225 24.854c1.728-1.13 3.877-1.989 6.243-2.513-0.47-0.556-0.897-1.176-1.265-1.844-0.95-1.726-1.453-3.627-1.453-5.497 0-2.689 0-5.228 0.956-7.305 0.928-2.016 2.598-3.265 4.976-3.734-0.529-2.39-1.936-3.961-5.682-3.961-6 0-6 4.029-6 9 0 3.096 1.797 6.191 4 7.432v1.649c-6.784 0.555-12 3.888-12 7.918h8.719c0.454-0.403 0.956-0.787 1.506-1.146z"></path>
</symbol>
<symbol id="reasons-graph" viewBox="0 0 32 32">
<path d="M4 28h28v4h-32v-32h4zM9 26c-1.657 0-3-1.343-3-3s1.343-3 3-3c0.088 0 0.176 0.005 0.262 0.012l3.225-5.375c-0.307-0.471-0.487-1.033-0.487-1.638 0-1.657 1.343-3 3-3s3 1.343 3 3c0 0.604-0.179 1.167-0.487 1.638l3.225 5.375c0.086-0.007 0.174-0.012 0.262-0.012 0.067 0 0.133 0.003 0.198 0.007l5.324-9.316c-0.329-0.482-0.522-1.064-0.522-1.691 0-1.657 1.343-3 3-3s3 1.343 3 3c0 1.657-1.343 3-3 3-0.067 0-0.133-0.003-0.198-0.007l-5.324 9.316c0.329 0.481 0.522 1.064 0.522 1.691 0 1.657-1.343 3-3 3s-3-1.343-3-3c0-0.604 0.179-1.167 0.487-1.638l-3.225-5.375c-0.086 0.007-0.174 0.012-0.262 0.012s-0.176-0.005-0.262-0.012l-3.225 5.375c0.307 0.471 0.487 1.033 0.487 1.637 0 1.657-1.343 3-3 3z"></path>
</symbol>
<symbol id="reasons-cup" viewBox="0 0 32 32">
<path d="M26 6v-4h-20v4h-6v4c0 3.314 2.686 6 6 6 0.627 0 1.232-0.096 1.801-0.275 1.443 2.063 3.644 3.556 6.199 4.075v6.2h-2c-2.209 0-4 1.791-4 4h16c0-2.209-1.791-4-4-4h-2v-6.2c2.555-0.519 4.756-2.012 6.199-4.075 0.568 0.179 1.173 0.275 1.801 0.275 3.314 0 6-2.686 6-6v-4h-6zM6 13.625c-1.999 0-3.625-1.626-3.625-3.625v-2h3.625v2c0 1.256 0.232 2.457 0.655 3.565-0.213 0.039-0.431 0.060-0.655 0.060zM29.625 10c0 1.999-1.626 3.625-3.625 3.625-0.224 0-0.442-0.021-0.655-0.060 0.423-1.107 0.655-2.309 0.655-3.565v-2h3.625v2z"></path>
</symbol>
<symbol id="reasons-save" viewBox="0 0 32 32">
<path d="M30 0l-14 4-14-4c0 0-0.141 1.616 0 4l14 4.378 14-4.378c0.141-2.384 0-4 0-4zM2.256 6.097c0.75 7.834 3.547 21.007 13.744 25.903 10.197-4.896 12.995-18.069 13.744-25.903l-13.744 5.167-13.744-5.167z"></path>
</symbol>
<symbol id="footer-google-plus" viewBox="0 0 32 32">
<path d="M10.181 14.294v3.494h5.775c-0.231 1.5-1.744 4.394-5.775 4.394-3.475 0-6.313-2.881-6.313-6.431s2.838-6.431 6.313-6.431c1.981 0 3.3 0.844 4.056 1.569l2.762-2.662c-1.775-1.656-4.075-2.662-6.819-2.662-5.631 0.006-10.181 4.556-10.181 10.188s4.55 10.181 10.181 10.181c5.875 0 9.775-4.131 9.775-9.95 0-0.669-0.075-1.181-0.163-1.688h-9.613z"></path>
<path d="M32 14h-3v-3h-3v3h-3v3h3v3h3v-3h3z"></path>
</symbol>
<symbol id="contacts-mail" viewBox="0 0 28 28">
<path d="M28 11.094v12.406c0 1.375-1.125 2.5-2.5 2.5h-23c-1.375 0-2.5-1.125-2.5-2.5v-12.406c0.469 0.516 1 0.969 1.578 1.359 2.594 1.766 5.219 3.531 7.766 5.391 1.313 0.969 2.938 2.156 4.641 2.156h0.031c1.703 0 3.328-1.188 4.641-2.156 2.547-1.844 5.172-3.625 7.781-5.391 0.562-0.391 1.094-0.844 1.563-1.359zM28 6.5c0 1.75-1.297 3.328-2.672 4.281-2.438 1.687-4.891 3.375-7.313 5.078-1.016 0.703-2.734 2.141-4 2.141h-0.031c-1.266 0-2.984-1.437-4-2.141-2.422-1.703-4.875-3.391-7.297-5.078-1.109-0.75-2.688-2.516-2.688-3.938 0-1.531 0.828-2.844 2.5-2.844h23c1.359 0 2.5 1.125 2.5 2.5z"></path>
</symbol>
<symbol id="contacts-phone" viewBox="0 0 32 32">
<path d="M20 10c2 2 4 2 4 4s-2 4-4 6-4 4-6 4-2-2-4-4-8 4-8 6 6 6 6 6c4 0 12.109-4.109 16-8s8-12 8-16c0 0-4-6-6-6s-8 6-6 8z"></path>
</symbol>
<symbol id="contacts-location" viewBox="0 0 32 32">
<path d="M16 0c-5.523 0-10 4.477-10 10 0 10 10 22 10 22s10-12 10-22c0-5.523-4.477-10-10-10zM16 16c-3.314 0-6-2.686-6-6s2.686-6 6-6 6 2.686 6 6-2.686 6-6 6z"></path>
</symbol>
<symbol id="footer-twitter" viewBox="0 0 32 32">
<path d="M32 7.075c-1.175 0.525-2.444 0.875-3.769 1.031 1.356-0.813 2.394-2.1 2.887-3.631-1.269 0.75-2.675 1.3-4.169 1.594-1.2-1.275-2.906-2.069-4.794-2.069-3.625 0-6.563 2.938-6.563 6.563 0 0.512 0.056 1.012 0.169 1.494-5.456-0.275-10.294-2.888-13.531-6.862-0.563 0.969-0.887 2.1-0.887 3.3 0 2.275 1.156 4.287 2.919 5.463-1.075-0.031-2.087-0.331-2.975-0.819 0 0.025 0 0.056 0 0.081 0 3.181 2.263 5.838 5.269 6.437-0.55 0.15-1.131 0.231-1.731 0.231-0.425 0-0.831-0.044-1.237-0.119 0.838 2.606 3.263 4.506 6.131 4.563-2.25 1.762-5.075 2.813-8.156 2.813-0.531 0-1.050-0.031-1.569-0.094 2.913 1.869 6.362 2.95 10.069 2.95 12.075 0 18.681-10.006 18.681-18.681 0-0.287-0.006-0.569-0.019-0.85 1.281-0.919 2.394-2.075 3.275-3.394z"></path>
</symbol>
<symbol id="footer-youtube" viewBox="0 0 32 32">
<path d="M31.681 9.6c0 0-0.313-2.206-1.275-3.175-1.219-1.275-2.581-1.281-3.206-1.356-4.475-0.325-11.194-0.325-11.194-0.325h-0.012c0 0-6.719 0-11.194 0.325-0.625 0.075-1.987 0.081-3.206 1.356-0.963 0.969-1.269 3.175-1.269 3.175s-0.319 2.588-0.319 5.181v2.425c0 2.587 0.319 5.181 0.319 5.181s0.313 2.206 1.269 3.175c1.219 1.275 2.819 1.231 3.531 1.369 2.563 0.244 10.881 0.319 10.881 0.319s6.725-0.012 11.2-0.331c0.625-0.075 1.988-0.081 3.206-1.356 0.962-0.969 1.275-3.175 1.275-3.175s0.319-2.587 0.319-5.181v-2.425c-0.006-2.588-0.325-5.181-0.325-5.181zM12.694 20.15v-8.994l8.644 4.513-8.644 4.481z"></path>
</symbol>
<symbol id="footer-linkedin" viewBox="0 0 32 32">
<path d="M29 0h-26c-1.65 0-3 1.35-3 3v26c0 1.65 1.35 3 3 3h26c1.65 0 3-1.35 3-3v-26c0-1.65-1.35-3-3-3zM12 26h-4v-14h4v14zM10 10c-1.106 0-2-0.894-2-2s0.894-2 2-2c1.106 0 2 0.894 2 2s-0.894 2-2 2zM26 26h-4v-8c0-1.106-0.894-2-2-2s-2 0.894-2 2v8h-4v-14h4v2.481c0.825-1.131 2.087-2.481 3.5-2.481 2.488 0 4.5 2.238 4.5 5v9z"></path>
</symbol>
</defs>
</svg>
